<svg width="1056" height="130" viewBox="0 0 1056 130" fill="none" xmlns="http://www.w3.org/2000/svg">
<path d="M0 5C0 2.23858 2.23858 0 5 0H1051C1053.76 0 1056 2.23858 1056 5V125C1056 127.761 1053.76 130 1051 130H5.00003C2.2386 130 0 127.761 0 125V5Z" fill="#F6F8F9"/>
<path d="M58.12 46.7302C64.88 49.8832 66.443 53.8162 66.776 55.8802C67.152 58.2362 66.321 60.0172 65.493 60.8242C64.655 61.6442 63.771 62.0582 62.865 62.0582C62.604 62.0582 62.359 62.0232 62.132 61.9652L57.161 47.4802C57.1438 47.3549 57.1593 47.2274 57.2061 47.11C57.2529 46.9925 57.3294 46.8892 57.428 46.8102L58.12 46.7302ZM58.12 46.7282C58.0083 46.6767 57.8846 46.6572 57.7624 46.6716C57.6403 46.6861 57.5246 46.734 57.428 46.8102L58.12 46.7282ZM58.12 46.7282L57.908 47.1812C64.528 50.2712 65.977 54.0692 66.282 55.9572C66.635 58.1652 65.848 59.7792 65.144 60.4652H65.143C64.371 61.2222 63.606 61.5572 62.865 61.5572C62.6461 61.5568 62.4281 61.5272 62.217 61.4692C62.891 57.2842 62.289 54.2712 61.109 51.1892C61.0547 51.0405 60.971 50.9044 60.8629 50.7887C60.7549 50.6731 60.6247 50.5804 60.4801 50.5161C60.3355 50.4518 60.1794 50.4173 60.0212 50.4145C59.8629 50.4118 59.7058 50.4409 59.559 50.5002L59.552 50.5032C59.2608 50.6303 59.0301 50.8651 58.9082 51.1585C58.7863 51.4519 58.7826 51.7811 58.898 52.0772C60.023 55.0172 60.532 57.7172 59.761 61.7412C59.299 61.8802 58.841 61.9992 58.406 61.9992C57.27 61.9992 56.339 61.6322 55.641 60.9942C54.941 60.3542 54.445 59.4132 54.241 58.2192C53.713 55.1252 55.065 52.9752 56.241 51.1272L56.263 51.0922C56.647 50.4882 57.029 49.8862 57.295 49.3022C57.568 48.7042 57.744 48.0722 57.656 47.4142C57.6502 47.3751 57.6545 47.3352 57.6685 47.2982C57.6825 47.2613 57.7057 47.2286 57.736 47.2032L57.428 46.8102L58.12 46.7282ZM58.12 46.7282L57.909 47.1822C57.8809 47.1693 57.8498 47.1641 57.819 47.1672C57.789 47.1717 57.7607 47.1842 57.737 47.2032L57.428 46.8102L58.12 46.7282ZM61.559 62.3022C61.5153 62.2846 61.472 62.2663 61.429 62.2472L61.324 62.2022C61.233 62.2522 61.138 62.2992 61.041 62.3432L61.559 62.3022ZM61.559 62.3022L61.16 61.7202C61.146 61.7982 61.1317 61.8762 61.117 61.9542L61.056 62.0592L61.093 62.0802L61.041 62.3432L61.559 62.3022ZM61.559 62.3022C61.2952 63.6115 60.9566 64.9046 60.545 66.1752L61.559 62.3022ZM61.559 62.3022L60.545 66.1752L61.559 62.3022ZM61.041 62.3432C60.7844 63.5863 60.4599 64.8145 60.069 66.0222L61.041 62.3432ZM61.041 62.3432C60.905 62.4053 60.7665 62.462 60.626 62.5132L61.041 62.3432ZM60.069 66.0222L60.626 62.5122L60.069 66.0222ZM60.069 66.0222C60.037 66.1212 59.957 66.1662 59.891 66.1662C59.8759 66.1658 59.861 66.1628 59.847 66.1572L59.838 66.1542C59.753 66.1242 59.675 66.0082 59.718 65.8702C60.0744 64.7701 60.3761 63.6531 60.622 62.5232L60.069 66.0222ZM60.069 66.0222L60.622 62.5222L60.069 66.0222ZM60.626 62.5122L60.624 62.5222H60.622L60.626 62.5122ZM60.626 62.5122L60.622 62.5222L60.626 62.5122ZM60.545 66.1752C60.502 66.3157 60.4155 66.439 60.298 66.5272C60.1805 66.6155 60.038 66.6641 59.891 66.6662C59.8179 66.6655 59.7454 66.652 59.677 66.6262C59.315 66.5032 59.122 66.0962 59.241 65.7192L60.545 66.1752ZM43.261 70.0002L43.662 69.7022L43.65 69.6852L43.637 69.6702L43.504 69.5202C43.125 69.0922 42.826 68.7532 42.596 68.2752C42.346 67.7552 42.167 67.0342 42.167 65.8342V55.8342C42.167 55.1172 42.402 54.6302 42.727 54.3212C43.057 54.0072 43.525 53.8342 44.058 53.8342C44.591 53.8342 45.058 54.0072 45.389 54.3212C45.714 54.6312 45.949 55.1172 45.949 55.8342V62.9692C45.9167 62.9863 45.885 63.0047 45.854 63.0242C45.6781 63.1396 45.5215 63.282 45.39 63.4462C45.0783 63.8397 44.8638 64.3012 44.764 64.7932C44.527 65.9002 44.779 67.3162 46.072 68.6832L49.568 72.5862L49.571 72.5902C49.6756 72.7074 49.8038 72.8012 49.9471 72.8653C50.0905 72.9295 50.2459 72.9625 50.403 72.9623C50.56 72.9621 50.7153 72.9287 50.8585 72.8642C51.0018 72.7997 51.1297 72.7057 51.234 72.5882C51.4406 72.356 51.5544 72.0559 51.5539 71.7451C51.5533 71.4343 51.4384 71.1346 51.231 70.9032L47.413 66.6612L47.41 66.6582C46.878 66.0782 46.875 65.1432 47.423 64.5432L47.424 64.5422C47.496 64.4622 47.739 64.2412 48.076 64.1802C48.369 64.1272 48.851 64.1742 49.486 64.8362L53.301 69.0912L53.306 69.0962L53.311 69.1012C54.946 70.8212 56.311 72.9462 56.311 75.8332V82.5002C56.311 82.5962 56.311 82.6602 56.304 82.7182C56.302 82.7429 56.2963 82.7672 56.287 82.7902C56.2004 82.8237 56.1078 82.8387 56.015 82.8342H49.638C49.5966 82.8347 49.5551 82.8324 49.514 82.8272C49.476 82.823 49.4389 82.8129 49.404 82.7972C49.3893 82.7915 49.3767 82.7814 49.368 82.7682C49.363 82.7602 49.341 82.7202 49.341 82.6182V77.3362L49.244 77.2042C48.832 76.6442 47.435 74.7682 46.144 73.0332L44.418 70.7162L43.868 69.9782L43.716 69.7732L43.676 69.7202L43.666 69.7062L43.663 69.7032V69.7022L43.261 70.0002ZM74.051 62.9692V55.8342C74.051 55.1172 74.286 54.6302 74.611 54.3212C74.941 54.0072 75.409 53.8342 75.942 53.8342C76.475 53.8342 76.942 54.0072 77.273 54.3212C77.598 54.6312 77.833 55.1172 77.833 55.8342V65.8342C77.833 67.0342 77.655 67.7542 77.405 68.2752C77.175 68.7532 76.875 69.0922 76.497 69.5202L76.364 69.6702L76.351 69.6852L76.339 69.7022L76.739 70.0002L76.339 69.7022H76.338L76.335 69.7062L76.325 69.7202L76.285 69.7732L76.133 69.9782L75.583 70.7162L73.857 73.0332C72.8215 74.4216 71.7882 75.8116 70.757 77.2032L70.66 77.3362V82.6172C70.66 82.7202 70.638 82.7602 70.632 82.7682C70.6238 82.7808 70.612 82.7906 70.598 82.7962C70.5628 82.812 70.5254 82.8221 70.487 82.8262C70.4459 82.8314 70.4045 82.8337 70.363 82.8332H63.986C63.8933 82.838 63.8007 82.8234 63.714 82.7902C63.7048 82.7672 63.6991 82.7429 63.697 82.7182C63.6898 82.6457 63.6871 82.5729 63.689 82.5002V75.8332C63.689 72.9462 65.054 70.8202 66.689 69.1012L66.695 69.0962L66.7 69.0912L70.515 64.8362C71.15 64.1742 71.632 64.1272 71.925 64.1802C72.262 64.2402 72.505 64.4602 72.581 64.5432C73.126 65.1432 73.123 66.0782 72.593 66.6592L72.591 66.6612L68.77 70.9042H68.768C68.5613 71.1359 68.4471 71.4356 68.4471 71.7462C68.4471 72.0567 68.5613 72.3564 68.768 72.5882C68.8723 72.7055 69.0002 72.7994 69.1433 72.8638C69.2865 72.9282 69.4416 72.9616 69.5986 72.9618C69.7555 72.962 69.9107 72.9289 70.054 72.8649C70.1973 72.8009 70.3255 72.7072 70.43 72.5902L70.433 72.5862L73.928 68.6822C75.222 67.3162 75.473 65.9002 75.237 64.7932C75.1368 64.3014 74.922 63.8403 74.61 63.4472C74.4786 63.2827 74.322 63.1399 74.146 63.0242C74.1151 63.0046 74.0834 62.9863 74.051 62.9692Z" fill="#2C70C1" stroke="#2C70C1"/>
<path d="M105.438 72H107.413V66.2919H113.94V72H115.921V58.9091H113.94V64.598H107.413V58.9091H105.438V72ZM121.501 72.2173C123.125 72.2173 124.039 71.3928 124.403 70.6577H124.48V72H126.347V65.4801C126.347 62.6229 124.097 62.054 122.537 62.054C120.76 62.054 119.124 62.7699 118.484 64.5597L120.281 64.9688C120.562 64.272 121.278 63.6009 122.562 63.6009C123.796 63.6009 124.429 64.2464 124.429 65.3587V65.4034C124.429 66.1001 123.713 66.0874 121.949 66.2919C120.089 66.5092 118.184 66.995 118.184 69.2259C118.184 71.1562 119.635 72.2173 121.501 72.2173ZM121.917 70.6832C120.837 70.6832 120.057 70.1974 120.057 69.2514C120.057 68.2287 120.964 67.8643 122.07 67.7173C122.69 67.6342 124.161 67.468 124.435 67.1932V68.4588C124.435 69.6222 123.509 70.6832 121.917 70.6832ZM127.933 74.8317H129.825V72H136.671V74.8317H138.538V70.3445H137.029V62.1818H130.356L130.049 65.8445C129.845 68.3182 129.544 69.6094 128.732 70.3445H127.933V74.8317ZM130.778 70.3445C131.43 69.4304 131.673 67.9091 131.865 65.8445L132.069 63.8182H135.163V70.3445H130.778ZM144.637 72.1982C146.779 72.1982 148.294 71.1435 148.728 69.5455L146.919 69.2195C146.574 70.1463 145.743 70.6193 144.657 70.6193C143.02 70.6193 141.921 69.5582 141.87 67.6662H148.85V66.9886C148.85 63.4411 146.728 62.054 144.503 62.054C141.767 62.054 139.965 64.1378 139.965 67.1548C139.965 70.2038 141.742 72.1982 144.637 72.1982ZM141.876 66.2344C141.953 64.8409 142.963 63.6328 144.516 63.6328C145.999 63.6328 146.971 64.7322 146.977 66.2344H141.876ZM142.554 60.6413C143.193 60.6413 143.679 60.1236 143.679 59.5291C143.679 58.8963 143.193 58.4105 142.554 58.4105C141.953 58.4105 141.422 58.8963 141.422 59.5291C141.422 60.1236 141.953 60.6413 142.554 60.6413ZM146.312 60.6413C146.951 60.6413 147.437 60.1236 147.437 59.5291C147.437 58.8963 146.951 58.4105 146.312 58.4105C145.711 58.4105 145.181 58.8963 145.181 59.5291C145.181 60.1236 145.711 60.6413 146.312 60.6413ZM150.115 72H152.385L155.466 67.9091H156.105V72H158.016V67.9091H158.655L161.717 72H163.986L160.202 66.9759L163.941 62.1818H161.717L158.681 66.2599H158.016V62.1818H156.105V66.2599H155.421L152.385 62.1818H150.16L153.919 66.9759L150.115 72ZM167.802 62.1818H165.929V72H167.802V67.9219H172.053V72H173.919V62.1818H172.053V66.2663H167.802V62.1818ZM179.333 72.2173C180.957 72.2173 181.871 71.3928 182.235 70.6577H182.312V72H184.179V65.4801C184.179 62.6229 181.929 62.054 180.369 62.054C178.592 62.054 176.956 62.7699 176.316 64.5597L178.113 64.9688C178.394 64.272 179.11 63.6009 180.395 63.6009C181.628 63.6009 182.261 64.2464 182.261 65.3587V65.4034C182.261 66.1001 181.545 66.0874 179.781 66.2919C177.921 66.5092 176.016 66.995 176.016 69.2259C176.016 71.1562 177.467 72.2173 179.333 72.2173ZM179.749 70.6832C178.669 70.6832 177.889 70.1974 177.889 69.2514C177.889 68.2287 178.797 67.8643 179.902 67.7173C180.522 67.6342 181.993 67.468 182.267 67.1932V68.4588C182.267 69.6222 181.341 70.6832 179.749 70.6832ZM192.579 72H194.376V62.1818H190.227C187.964 62.1818 186.584 63.3516 186.584 65.1989C186.584 66.4901 187.261 67.4425 188.431 67.8835L186.136 72H188.092L190.233 68.1584H192.579V72ZM192.579 66.6115H190.099C189.057 66.6115 188.45 66.0618 188.456 65.2244C188.45 64.3807 189.108 63.8118 190.227 63.8118H192.579V66.6115ZM201.683 72H203.594V68.0753H204.835L207.794 72H210.165L206.317 66.9567L210.121 62.1818H207.756L204.515 66.2983H203.594V62.1818H201.683V72ZM215.381 72.1982C218.149 72.1982 219.958 70.1719 219.958 67.1357C219.958 64.0803 218.149 62.054 215.381 62.054C212.614 62.054 210.805 64.0803 210.805 67.1357C210.805 70.1719 212.614 72.1982 215.381 72.1982ZM215.388 70.5938C213.579 70.5938 212.735 69.0149 212.735 67.1293C212.735 65.25 213.579 63.652 215.388 63.652C217.184 63.652 218.028 65.25 218.028 67.1293C218.028 69.0149 217.184 70.5938 215.388 70.5938ZM223.964 62.1818H222.091V72H223.964V67.9219H228.215V72H230.081V62.1818H228.215V66.2663H223.964V62.1818ZM236.774 72.1982C239.094 72.1982 240.596 70.8047 240.807 68.8935H238.947C238.704 69.9545 237.88 70.581 236.787 70.581C235.17 70.581 234.128 69.2322 234.128 67.0909C234.128 64.9879 235.189 63.6648 236.787 63.6648C238.001 63.6648 238.743 64.4318 238.947 65.3523H240.807C240.603 63.3707 238.986 62.054 236.755 62.054C233.987 62.054 232.197 64.1378 232.197 67.1357C232.197 70.0952 233.923 72.1982 236.774 72.1982ZM242.108 63.831H245.323V72H247.19V63.831H250.392V62.1818H242.108V63.831ZM252.414 75.6818H254.325V70.4723H254.44C254.785 71.0987 255.488 72.1918 257.278 72.1918C259.656 72.1918 261.382 70.2869 261.382 67.1101C261.382 63.9268 259.63 62.054 257.259 62.054C255.437 62.054 254.779 63.1662 254.44 63.7734H254.28V62.1818H252.414V75.6818ZM254.287 67.0909C254.287 65.0391 255.181 63.6776 256.85 63.6776C258.582 63.6776 259.451 65.1413 259.451 67.0909C259.451 69.0597 258.556 70.5618 256.85 70.5618C255.207 70.5618 254.287 69.1555 254.287 67.0909ZM264.38 75.6818C265.958 75.6818 266.956 74.8572 267.525 73.3104L271.583 62.201L269.519 62.1818L267.032 69.8011H266.93L264.444 62.1818H262.398L265.99 72.1278L265.754 72.7798C265.268 74.0838 264.584 74.1925 263.536 73.9048L263.076 75.4709C263.306 75.5732 263.804 75.6818 264.38 75.6818ZM273.384 72H275.296V68.0753H276.536L279.495 72H281.867L278.019 66.9567L281.822 62.1818H279.457L276.216 66.2983H275.296V62.1818H273.384V72ZM291.354 62.1818H289.494V70.3509H285.218V62.1818H283.345V72H290.913V75.1641H292.805V70.4339H291.354V62.1818ZM296.79 69.3217V62.1818H294.918V72H296.995L301.303 64.8537V72H303.176V62.1818H301.118L296.79 69.3217ZM311.601 72H313.397V62.1818H309.249C306.986 62.1818 305.605 63.3516 305.605 65.1989C305.605 66.4901 306.283 67.4425 307.452 67.8835L305.158 72H307.114L309.255 68.1584H311.601V72ZM311.601 66.6115H309.121C308.079 66.6115 307.472 66.0618 307.478 65.2244C307.472 64.3807 308.13 63.8118 309.249 63.8118H311.601V66.6115ZM331.838 63C331.352 60.3153 329.205 58.7301 326.571 58.7301C323.222 58.7301 320.793 61.3125 320.793 65.4545C320.793 69.5966 323.222 72.179 326.571 72.179C329.205 72.179 331.352 70.5938 331.838 67.9091H330.253C329.869 69.7244 328.31 70.696 326.571 70.696C324.193 70.696 322.327 68.8551 322.327 65.4545C322.327 62.054 324.193 60.2131 326.571 60.2131C328.31 60.2131 329.869 61.1847 330.253 63H331.838ZM333.633 63.5881H336.88V72H338.388V63.5881H341.61V62.1818H333.633V63.5881ZM343.81 75.6818H345.319V70.4915H345.447C345.779 71.0284 346.418 72.2045 348.31 72.2045C350.765 72.2045 352.478 70.2358 352.478 67.1165C352.478 64.0227 350.765 62.054 348.285 62.054C346.367 62.054 345.779 63.2301 345.447 63.7415H345.268V62.1818H343.81V75.6818ZM345.293 67.0909C345.293 64.892 346.265 63.4091 348.106 63.4091C350.023 63.4091 350.969 65.0199 350.969 67.0909C350.969 69.1875 349.998 70.8494 348.106 70.8494C346.29 70.8494 345.293 69.3153 345.293 67.0909ZM358.768 72.2045C361.427 72.2045 363.217 70.1847 363.217 67.142C363.217 64.0739 361.427 62.054 358.768 62.054C356.109 62.054 354.319 64.0739 354.319 67.142C354.319 70.1847 356.109 72.2045 358.768 72.2045ZM358.768 70.8494C356.748 70.8494 355.827 69.1108 355.827 67.142C355.827 65.1733 356.748 63.4091 358.768 63.4091C360.788 63.4091 361.708 65.1733 361.708 67.142C361.708 69.1108 360.788 70.8494 358.768 70.8494ZM367.028 69.7756V62.1818H365.519V72H367.284L371.988 64.4062V72H373.497V62.1818H371.758L367.028 69.7756ZM370.761 58.9091C370.761 59.5739 370.403 60.1619 369.508 60.1619C368.613 60.1619 368.281 59.5739 368.281 58.9091H366.874C366.874 60.2898 367.897 61.2614 369.508 61.2614C371.144 61.2614 372.167 60.2898 372.167 58.9091H370.761ZM384.16 72H386.052L380.581 64.6619L385.873 58.9091H383.981L378.74 64.5852H378.049V58.9091H376.464V72H378.049V65.9915H379.66L384.16 72ZM391.164 72.2045C393.823 72.2045 395.613 70.1847 395.613 67.142C395.613 64.0739 393.823 62.054 391.164 62.054C388.505 62.054 386.715 64.0739 386.715 67.142C386.715 70.1847 388.505 72.2045 391.164 72.2045ZM391.164 70.8494C389.144 70.8494 388.224 69.1108 388.224 67.142C388.224 65.1733 389.144 63.4091 391.164 63.4091C393.184 63.4091 394.105 65.1733 394.105 67.142C394.105 69.1108 393.184 70.8494 391.164 70.8494ZM399.424 62.1818H397.916V72H399.424V67.8068H404.129V72H405.637V62.1818H404.129V66.4006H399.424V62.1818ZM407.056 63.5881H410.304V72H411.812V63.5881H415.034V62.1818H407.056V63.5881ZM417.234 75.6818H418.743V70.4915H418.871C419.203 71.0284 419.842 72.2045 421.734 72.2045C424.189 72.2045 425.902 70.2358 425.902 67.1165C425.902 64.0227 424.189 62.054 421.709 62.054C419.791 62.054 419.203 63.2301 418.871 63.7415H418.692V62.1818H417.234V75.6818ZM418.717 67.0909C418.717 64.892 419.689 63.4091 421.53 63.4091C423.447 63.4091 424.393 65.0199 424.393 67.0909C424.393 69.1875 423.422 70.8494 421.53 70.8494C419.714 70.8494 418.717 69.3153 418.717 67.0909ZM432.192 72.2045C434.851 72.2045 436.64 70.1847 436.64 67.142C436.64 64.0739 434.851 62.054 432.192 62.054C429.532 62.054 427.743 64.0739 427.743 67.142C427.743 70.1847 429.532 72.2045 432.192 72.2045ZM432.192 70.8494C430.172 70.8494 429.251 69.1108 429.251 67.142C429.251 65.1733 430.172 63.4091 432.192 63.4091C434.211 63.4091 435.132 65.1733 435.132 67.142C435.132 69.1108 434.211 70.8494 432.192 70.8494ZM438.074 72H438.585C440.759 72 441.385 70.3125 441.526 67.0909L441.679 63.5881H445.284V72H446.793V62.1818H440.247L440.068 66.5284C439.94 69.8267 439.608 70.5938 438.432 70.5938H438.074V72ZM451.069 65.7358V62.1818H449.56V72H453.677C455.978 72 457.231 70.5938 457.231 68.8295C457.231 67.0398 455.978 65.7358 453.677 65.7358H451.069ZM451.069 67.142H453.677C454.872 67.142 455.722 67.8707 455.722 68.9062C455.722 69.897 454.872 70.5938 453.677 70.5938H451.069V67.142ZM464.59 72H469.218C471.212 72 472.414 70.875 472.414 69.3665C472.414 67.826 471.244 66.995 470.164 66.8352C471.269 66.6051 472.056 65.9851 472.056 64.7898C472.056 63.2237 470.713 62.1818 468.604 62.1818H464.59V72ZM466.021 70.6193V67.6023H469.218C470.253 67.6023 470.879 68.2223 470.879 69.2386C470.879 70.0952 470.253 70.6193 469.218 70.6193H466.021ZM466.021 66.2983V63.5625H468.604C469.812 63.5625 470.547 64.0675 470.547 64.892C470.547 65.7678 469.812 66.2983 468.604 66.2983H466.021ZM475.822 62.1818H474.083L477.203 67.0909L474.083 72H475.822L478.174 68.1903L480.527 72H482.265L479.095 67.0909L482.265 62.1818H480.527L478.174 66.196L475.822 62.1818ZM488.002 72.2045C490.661 72.2045 492.451 70.1847 492.451 67.142C492.451 64.0739 490.661 62.054 488.002 62.054C485.343 62.054 483.553 64.0739 483.553 67.142C483.553 70.1847 485.343 72.2045 488.002 72.2045ZM488.002 70.8494C485.982 70.8494 485.062 69.1108 485.062 67.142C485.062 65.1733 485.982 63.4091 488.002 63.4091C490.022 63.4091 490.942 65.1733 490.942 67.142C490.942 69.1108 490.022 70.8494 488.002 70.8494ZM493.705 74.8125H495.214V72H502.475V74.8125H503.984V70.5938H502.475V62.1818H496.237L495.904 66.0682C495.668 68.8168 495.316 69.7628 494.524 70.5938H493.705V74.8125ZM496.237 70.5938C496.927 69.6861 497.176 68.12 497.387 66.0682L497.643 63.5881H500.967V70.5938H496.237ZM507.495 69.7756V62.1818H505.986V72H507.75L512.455 64.4062V72H513.963V62.1818H512.225L507.495 69.7756ZM515.39 63.5881H518.638V72H520.146V63.5881H523.368V62.1818H515.39V63.5881ZM530.631 72H535.259C537.253 72 538.455 70.875 538.455 69.3665C538.455 67.826 537.285 66.995 536.205 66.8352C537.31 66.6051 538.097 65.9851 538.097 64.7898C538.097 63.2237 536.754 62.1818 534.645 62.1818H530.631V72ZM532.062 70.6193V67.6023H535.259C536.294 67.6023 536.92 68.2223 536.92 69.2386C536.92 70.0952 536.294 70.6193 535.259 70.6193H532.062ZM532.062 66.2983V63.5625H534.645C535.853 63.5625 536.588 64.0675 536.588 64.892C536.588 65.7678 535.853 66.2983 534.645 66.2983H532.062ZM549.789 72.2045C551.963 72.2045 553.394 70.875 553.65 69.1364H552.142C551.86 70.2102 550.965 70.8494 549.789 70.8494C547.999 70.8494 546.849 69.3665 546.849 67.0909C546.849 64.8665 548.025 63.4091 549.789 63.4091C551.119 63.4091 551.911 64.2273 552.142 65.1222H553.65C553.394 63.2812 551.835 62.054 549.764 62.054C547.105 62.054 545.34 64.1506 545.34 67.142C545.34 70.0824 547.028 72.2045 549.789 72.2045ZM555.082 63.5881H558.329V72H559.838V63.5881H563.059V62.1818H555.082V63.5881ZM567.639 72.2301C569.352 72.2301 570.247 71.3097 570.554 70.6705H570.631V72H572.139V65.5312C572.139 62.4119 569.761 62.054 568.508 62.054C567.025 62.054 565.338 62.5653 564.571 64.3551L566.003 64.8665C566.335 64.1506 567.121 63.3835 568.559 63.3835C569.947 63.3835 570.631 64.1186 570.631 65.3778V65.429C570.631 66.1577 569.889 66.0938 568.099 66.3239C566.278 66.5604 564.29 66.9631 564.29 69.2131C564.29 71.1307 565.773 72.2301 567.639 72.2301ZM567.869 70.875C566.667 70.875 565.798 70.3381 565.798 69.2898C565.798 68.1392 566.846 67.7812 568.023 67.6278C568.662 67.5511 570.375 67.3722 570.631 67.0653V68.446C570.631 69.6733 569.659 70.875 567.869 70.875ZM576.401 62.1818H574.892V72H576.401V67.8068H581.105V72H582.614V62.1818H581.105V66.4006H576.401V62.1818ZM584.321 74.8125H585.829V72H593.091V74.8125H594.599V70.5938H593.091V62.1818H586.852L586.52 66.0682C586.283 68.8168 585.931 69.7628 585.139 70.5938H584.321V74.8125ZM586.852 70.5938C587.542 69.6861 587.792 68.12 588.002 66.0682L588.258 63.5881H591.582V70.5938H586.852ZM599.491 72.2301C601.204 72.2301 602.099 71.3097 602.405 70.6705H602.482V72H603.991V65.5312C603.991 62.4119 601.613 62.054 600.36 62.054C598.877 62.054 597.189 62.5653 596.422 64.3551L597.854 64.8665C598.187 64.1506 598.973 63.3835 600.411 63.3835C601.798 63.3835 602.482 64.1186 602.482 65.3778V65.429C602.482 66.1577 601.741 66.0938 599.951 66.3239C598.129 66.5604 596.141 66.9631 596.141 69.2131C596.141 71.1307 597.624 72.2301 599.491 72.2301ZM599.721 70.875C598.519 70.875 597.65 70.3381 597.65 69.2898C597.65 68.1392 598.698 67.7812 599.874 67.6278C600.513 67.5511 602.226 67.3722 602.482 67.0653V68.446C602.482 69.6733 601.51 70.875 599.721 70.875ZM606.744 75.6818H608.252V70.4915H608.38C608.713 71.0284 609.352 72.2045 611.244 72.2045C613.699 72.2045 615.412 70.2358 615.412 67.1165C615.412 64.0227 613.699 62.054 611.218 62.054C609.301 62.054 608.713 63.2301 608.38 63.7415H608.201V62.1818H606.744V75.6818ZM608.227 67.0909C608.227 64.892 609.199 63.4091 611.039 63.4091C612.957 63.4091 613.903 65.0199 613.903 67.0909C613.903 69.1875 612.931 70.8494 611.039 70.8494C609.224 70.8494 608.227 69.3153 608.227 67.0909ZM616.43 63.5881H619.677V72H621.185V63.5881H624.407V62.1818H616.43V63.5881ZM628.116 62.1818H626.607V72H628.116V67.8068H632.82V72H634.329V62.1818H632.82V66.4006H628.116V62.1818ZM637.704 75.6818C639.065 75.6818 640.024 74.9595 640.593 73.4318L644.773 62.2074L643.124 62.1818L640.414 70.0057H640.312L637.602 62.1818H635.965L639.596 72.0511L639.315 72.8182C638.765 74.3139 638.087 74.4545 636.988 74.1733L636.604 75.5028C636.758 75.5795 637.192 75.6818 637.704 75.6818ZM647.562 62.1818H646.053V72H647.562V67.8835H650.08C650.349 70.5107 652.056 72.2045 654.491 72.2045C657.15 72.2045 658.94 70.1847 658.94 67.142C658.94 64.0739 657.15 62.054 654.491 62.054C652.03 62.054 650.311 63.7862 650.074 66.4773H647.562V62.1818ZM654.491 70.8494C652.471 70.8494 651.551 69.1108 651.551 67.142C651.551 65.1733 652.471 63.4091 654.491 63.4091C656.511 63.4091 657.431 65.1733 657.431 67.142C657.431 69.1108 656.511 70.8494 654.491 70.8494ZM666.457 72H667.965V67.858H669.32L672.542 72H674.485L670.471 66.9119L674.434 62.1818H672.491L668.963 66.4517H667.965V62.1818H666.457V72ZM679.709 72.2045C682.368 72.2045 684.158 70.1847 684.158 67.142C684.158 64.0739 682.368 62.054 679.709 62.054C677.05 62.054 675.26 64.0739 675.26 67.142C675.26 70.1847 677.05 72.2045 679.709 72.2045ZM679.709 70.8494C677.689 70.8494 676.769 69.1108 676.769 67.142C676.769 65.1733 677.689 63.4091 679.709 63.4091C681.729 63.4091 682.65 65.1733 682.65 67.142C682.65 69.1108 681.729 70.8494 679.709 70.8494ZM691.83 69.9545L688.455 62.1818H686.461V72H687.969V64.3487L691.216 72H692.444L695.691 64.4893V72H697.199V62.1818H695.256L691.83 69.9545ZM699.961 72H701.469V63.5881H706.174V72H707.682V62.1818H699.961V72ZM709.568 72H710.079C712.253 72 712.879 70.3125 713.02 67.0909L713.173 63.5881H716.778V72H718.287V62.1818H711.741L711.562 66.5284C711.434 69.8267 711.102 70.5938 709.926 70.5938H709.568V72ZM725.171 72.2045C727.165 72.2045 728.623 71.2074 729.083 69.7244L727.626 69.3153C727.242 70.3381 726.354 70.8494 725.171 70.8494C723.4 70.8494 722.18 69.7053 722.109 67.6023H729.236V66.9631C729.236 63.3068 727.063 62.054 725.018 62.054C722.358 62.054 720.594 64.1506 720.594 67.1676C720.594 70.1847 722.333 72.2045 725.171 72.2045ZM722.109 66.2983C722.211 64.7706 723.292 63.4091 725.018 63.4091C726.654 63.4091 727.702 64.6364 727.702 66.2983H722.109ZM731.531 72H733.04V67.858H734.395L737.616 72H739.559L735.545 66.9119L739.508 62.1818H737.565L734.037 66.4517H733.04V62.1818H731.531V72ZM740.637 63.5881H743.884V72H745.392V63.5881H748.614V62.1818H740.637V63.5881ZM753.194 72.2301C754.907 72.2301 755.802 71.3097 756.108 70.6705H756.185V72H757.694V65.5312C757.694 62.4119 755.316 62.054 754.063 62.054C752.58 62.054 750.893 62.5653 750.126 64.3551L751.557 64.8665C751.89 64.1506 752.676 63.3835 754.114 63.3835C755.501 63.3835 756.185 64.1186 756.185 65.3778V65.429C756.185 66.1577 755.444 66.0938 753.654 66.3239C751.832 66.5604 749.844 66.9631 749.844 69.2131C749.844 71.1307 751.327 72.2301 753.194 72.2301ZM753.424 70.875C752.222 70.875 751.353 70.3381 751.353 69.2898C751.353 68.1392 752.401 67.7812 753.577 67.6278C754.216 67.5511 755.93 67.3722 756.185 67.0653V68.446C756.185 69.6733 755.214 70.875 753.424 70.875ZM768.169 62.1818H766.66V70.5938H761.956V62.1818H760.447V72H768.041V75.1705H769.549V70.5938H768.169V62.1818ZM773.381 69.7756V62.1818H771.873V72H773.637L778.342 64.4062V72H779.85V62.1818H778.112L773.381 69.7756ZM783.406 62.1818H781.897V72H783.406V67.8835H785.924C786.193 70.5107 787.899 72.2045 790.335 72.2045C792.994 72.2045 794.784 70.1847 794.784 67.142C794.784 64.0739 792.994 62.054 790.335 62.054C787.874 62.054 786.154 63.7862 785.918 66.4773H783.406V62.1818ZM790.335 70.8494C788.315 70.8494 787.394 69.1108 787.394 67.142C787.394 65.1733 788.315 63.4091 790.335 63.4091C792.355 63.4091 793.275 65.1733 793.275 67.142C793.275 69.1108 792.355 70.8494 790.335 70.8494ZM798.338 72.1023C798.97 72.1023 799.488 71.5845 799.488 70.9517C799.488 70.3189 798.97 69.8011 798.338 69.8011C797.705 69.8011 797.187 70.3189 797.187 70.9517C797.187 71.5845 797.705 72.1023 798.338 72.1023Z" fill="#212B31"/>
<path d="M867.5 44C867.5 42.067 869.067 40.5 871 40.5H1012C1013.93 40.5 1015.5 42.067 1015.5 44V86C1015.5 87.933 1013.93 89.5 1012 89.5H871C869.067 89.5 867.5 87.933 867.5 86V44Z" fill="white"/>
<path d="M903.518 58.9091H893.751V72H895.337V60.3153H901.933V72H903.518V58.9091ZM910.5 72.2045C913.159 72.2045 914.949 70.1847 914.949 67.142C914.949 64.0739 913.159 62.054 910.5 62.054C907.841 62.054 906.051 64.0739 906.051 67.142C906.051 70.1847 907.841 72.2045 910.5 72.2045ZM910.5 70.8494C908.48 70.8494 907.56 69.1108 907.56 67.142C907.56 65.1733 908.48 63.4091 910.5 63.4091C912.52 63.4091 913.441 65.1733 913.441 67.142C913.441 69.1108 912.52 70.8494 910.5 70.8494ZM916.203 74.8125H917.712V72H924.973V74.8125H926.482V70.5938H924.973V62.1818H918.735L918.402 66.0682C918.166 68.8168 917.814 69.7628 917.022 70.5938H916.203V74.8125ZM918.735 70.5938C919.425 69.6861 919.674 68.12 919.885 66.0682L920.141 63.5881H923.465V70.5938H918.735ZM928.484 75.6818H929.993V70.4915H930.121C930.453 71.0284 931.092 72.2045 932.984 72.2045C935.439 72.2045 937.152 70.2358 937.152 67.1165C937.152 64.0227 935.439 62.054 932.959 62.054C931.041 62.054 930.453 63.2301 930.121 63.7415H929.942V62.1818H928.484V75.6818ZM929.967 67.0909C929.967 64.892 930.939 63.4091 932.78 63.4091C934.697 63.4091 935.643 65.0199 935.643 67.0909C935.643 69.1875 934.672 70.8494 932.78 70.8494C930.964 70.8494 929.967 69.3153 929.967 67.0909ZM943.442 72.2045C946.101 72.2045 947.89 70.1847 947.89 67.142C947.89 64.0739 946.101 62.054 943.442 62.054C940.782 62.054 938.993 64.0739 938.993 67.142C938.993 70.1847 940.782 72.2045 943.442 72.2045ZM943.442 70.8494C941.422 70.8494 940.501 69.1108 940.501 67.142C940.501 65.1733 941.422 63.4091 943.442 63.4091C945.461 63.4091 946.382 65.1733 946.382 67.142C946.382 69.1108 945.461 70.8494 943.442 70.8494ZM957.48 58.5C957.001 58.9027 956.285 58.9027 955.281 58.8963C954.955 58.8963 954.597 58.8963 954.207 58.9091C951.216 58.9858 949.733 61.2614 949.733 65.6335V66.6818C949.733 70.3125 951.497 72.2045 954.131 72.2045C956.758 72.2045 958.503 70.2997 958.503 67.2188C958.503 64.125 956.732 62.4886 954.438 62.4886C953.089 62.4886 951.83 63.0511 951.165 64.2784H951.037C951.241 61.7472 952.188 60.392 954.233 60.3153C956.048 60.2386 957.352 60.2898 958.247 59.4205L957.48 58.5ZM954.131 70.8494C952.341 70.8494 951.241 69.4176 951.241 67.2188C951.273 65.071 952.354 63.8438 954.105 63.8438C955.901 63.8438 956.994 65.071 956.994 67.2188C956.994 69.4304 955.908 70.8494 954.131 70.8494ZM962.319 62.1818H960.81V72H962.319V67.8068H967.023V72H968.532V62.1818H967.023V66.4006H962.319V62.1818ZM975.403 72.2045C977.398 72.2045 978.855 71.2074 979.315 69.7244L977.858 69.3153C977.474 70.3381 976.586 70.8494 975.403 70.8494C973.633 70.8494 972.412 69.7053 972.342 67.6023H979.469V66.9631C979.469 63.3068 977.295 62.054 975.25 62.054C972.591 62.054 970.827 64.1506 970.827 67.1676C970.827 70.1847 972.565 72.2045 975.403 72.2045ZM972.342 66.2983C972.444 64.7706 973.524 63.4091 975.25 63.4091C976.886 63.4091 977.935 64.6364 977.935 66.2983H972.342ZM985.88 72.2045C987.874 72.2045 989.332 71.2074 989.792 69.7244L988.335 69.3153C987.951 70.3381 987.062 70.8494 985.88 70.8494C984.109 70.8494 982.888 69.7053 982.818 67.6023H989.945V66.9631C989.945 63.3068 987.772 62.054 985.727 62.054C983.067 62.054 981.303 64.1506 981.303 67.1676C981.303 70.1847 983.042 72.2045 985.88 72.2045ZM982.818 66.2983C982.92 64.7706 984.001 63.4091 985.727 63.4091C987.363 63.4091 988.411 64.6364 988.411 66.2983H982.818Z" fill="#212B31"/>
<path d="M867.5 44C867.5 42.067 869.067 40.5 871 40.5H1012C1013.93 40.5 1015.5 42.067 1015.5 44V86C1015.5 87.933 1013.93 89.5 1012 89.5H871C869.067 89.5 867.5 87.933 867.5 86V44Z" stroke="#DADEDF"/>
</svg>
