<svg width="325" height="150" viewBox="0 0 325 150" fill="none" xmlns="http://www.w3.org/2000/svg">
<g clip-path="url(#clip0_2_5)">
<path d="M190.967 25.747C194.602 12.625 188.314 0 177.295 0C171.198 0 168.595 3.504 161.898 11.663C155.2 19.822 145.65 8.478 144 25.747C145.386 41.66 162.652 56.064 170.668 42.774C177.966 30.674 187.333 38.868 190.968 25.747H190.967Z" fill="#FFDD76"/>
<path d="M176.754 12C176.43 12 176.182 12.25 176.182 12.576C176.182 12.902 176.43 13.152 176.754 13.152H177.287L170.865 19.642L165.167 13.901C165.116 13.8465 165.054 13.8031 164.985 13.7735C164.916 13.7438 164.842 13.7285 164.767 13.7285C164.692 13.7285 164.618 13.7438 164.549 13.7735C164.48 13.8031 164.418 13.8465 164.367 13.901L158.078 20.16C158.024 20.2122 157.981 20.2748 157.951 20.3441C157.922 20.4133 157.907 20.4878 157.907 20.563C157.907 20.6382 157.922 20.7127 157.951 20.7819C157.981 20.8512 158.024 20.9138 158.078 20.966C158.129 21.021 158.191 21.0649 158.26 21.0949C158.329 21.1249 158.403 21.1404 158.478 21.1404C158.553 21.1404 158.627 21.1249 158.696 21.0949C158.765 21.0649 158.827 21.021 158.878 20.966L164.767 15.11L170.465 20.851C170.694 21.081 171.055 21.081 171.265 20.851L178.107 13.958V14.496C178.107 14.822 178.354 15.072 178.678 15.072C179.002 15.072 179.25 14.822 179.25 14.496V12.576C179.25 12.4604 179.216 12.3474 179.151 12.2516C179.087 12.1557 178.995 12.0813 178.888 12.038C178.82 12.0143 178.75 12.0015 178.678 12H178.659H176.754ZM175.058 21.408C174.982 21.4069 174.907 21.4211 174.837 21.4497C174.767 21.4783 174.703 21.5208 174.65 21.5745C174.596 21.6283 174.554 21.6923 174.526 21.7626C174.498 21.833 174.484 21.9083 174.486 21.984V35.424C174.486 35.75 174.734 36 175.058 36H178.488C178.812 36 179.059 35.75 179.059 35.424V21.984C179.061 21.9083 179.047 21.8331 179.019 21.7628C178.991 21.6926 178.949 21.6286 178.896 21.5749C178.842 21.5211 178.779 21.4787 178.709 21.45C178.639 21.4213 178.564 21.407 178.488 21.408H175.058ZM156.554 21.908C156.478 21.9078 156.402 21.9233 156.332 21.9537C156.263 21.984 156.2 22.0284 156.148 22.0842C156.096 22.14 156.056 22.2059 156.031 22.2778C156.005 22.3497 155.995 22.426 156.001 22.502V22.579C156.001 22.886 156.268 23.136 156.591 23.136C156.914 23.136 157.164 22.867 157.144 22.541V22.464C157.144 22.138 156.878 21.907 156.554 21.907V21.908ZM162.861 23.328C162.785 23.327 162.71 23.3413 162.64 23.37C162.57 23.3987 162.507 23.4411 162.453 23.4949C162.4 23.5486 162.358 23.6126 162.33 23.6828C162.302 23.7531 162.288 23.8283 162.29 23.904V35.424C162.29 35.75 162.537 36 162.861 36H166.291C166.615 36 166.863 35.75 166.863 35.424V23.904C166.865 23.8283 166.851 23.7531 166.823 23.6828C166.795 23.6126 166.753 23.5486 166.7 23.4949C166.646 23.4411 166.583 23.3987 166.513 23.37C166.443 23.3413 166.368 23.327 166.292 23.328H162.861ZM163.433 24.48H165.72V34.848H163.433V24.48ZM168.959 27.168C168.883 27.167 168.808 27.1813 168.738 27.21C168.668 27.2387 168.605 27.2811 168.551 27.3349C168.498 27.3886 168.456 27.4526 168.428 27.5228C168.4 27.5931 168.386 27.6683 168.388 27.744V35.424C168.388 35.75 168.635 36 168.959 36H172.389C172.714 36 172.961 35.75 172.961 35.424V27.744C172.963 27.6683 172.949 27.5931 172.921 27.5228C172.893 27.4526 172.851 27.3886 172.798 27.3349C172.744 27.2811 172.681 27.2387 172.611 27.21C172.541 27.1813 172.466 27.167 172.39 27.168H168.959ZM169.531 28.32H171.818V34.848H169.531V28.32ZM156.763 29.088C156.687 29.087 156.612 29.1013 156.542 29.13C156.472 29.1587 156.409 29.2011 156.355 29.2549C156.302 29.3086 156.26 29.3726 156.232 29.4428C156.204 29.5131 156.19 29.5883 156.192 29.664V35.424C156.192 35.75 156.439 36 156.763 36H160.193C160.517 36 160.765 35.75 160.765 35.424V29.664C160.767 29.5883 160.753 29.513 160.725 29.4426C160.697 29.3722 160.655 29.3083 160.601 29.2545C160.548 29.2008 160.484 29.1583 160.414 29.1297C160.344 29.1011 160.269 29.0869 160.193 29.088H156.763ZM157.335 30.24H159.622V34.848H157.335V30.24Z" fill="#63522B"/>
</g>
<path d="M56.6122 73.9091H46.8452V87H48.4304V75.3153H55.027V87H56.6122V73.9091ZM63.5939 87.2045C66.253 87.2045 68.0428 85.1847 68.0428 82.142C68.0428 79.0739 66.253 77.054 63.5939 77.054C60.9348 77.054 59.1451 79.0739 59.1451 82.142C59.1451 85.1847 60.9348 87.2045 63.5939 87.2045ZM63.5939 85.8494C61.574 85.8494 60.6536 84.1108 60.6536 82.142C60.6536 80.1733 61.574 78.4091 63.5939 78.4091C65.6138 78.4091 66.5343 80.1733 66.5343 82.142C66.5343 84.1108 65.6138 85.8494 63.5939 85.8494ZM70.3455 87H74.9734C76.9677 87 78.1694 85.875 78.1694 84.3665C78.1694 82.826 76.9996 81.995 75.9194 81.8352C77.0252 81.6051 77.8114 80.9851 77.8114 79.7898C77.8114 78.2237 76.4691 77.1818 74.3597 77.1818H70.3455V87ZM71.7773 85.6193V82.6023H74.9734C76.0089 82.6023 76.6353 83.2223 76.6353 84.2386C76.6353 85.0952 76.0089 85.6193 74.9734 85.6193H71.7773ZM71.7773 81.2983V78.5625H74.3597C75.5678 78.5625 76.3029 79.0675 76.3029 79.892C76.3029 80.7678 75.5678 81.2983 74.3597 81.2983H71.7773ZM81.9615 80.7358V77.1818H80.4529V87H84.5694C86.8706 87 88.1234 85.5938 88.1234 83.8295C88.1234 82.0398 86.8706 80.7358 84.5694 80.7358H81.9615ZM89.6831 87H91.1916V77.1818H89.6831V87ZM81.9615 82.142H84.5694C85.7647 82.142 86.6149 82.8707 86.6149 83.9062C86.6149 84.897 85.7647 85.5938 84.5694 85.5938H81.9615V82.142ZM93.9529 77.1818V87H105.893V77.1818H104.385V85.5938H100.677V77.1818H99.1689V85.5938H95.4615V77.1818H93.9529ZM112.765 87.2045C114.759 87.2045 116.216 86.2074 116.677 84.7244L115.219 84.3153C114.836 85.3381 113.947 85.8494 112.765 85.8494C110.994 85.8494 109.773 84.7053 109.703 82.6023H116.83V81.9631C116.83 78.3068 114.657 77.054 112.611 77.054C109.952 77.054 108.188 79.1506 108.188 82.1676C108.188 85.1847 109.927 87.2045 112.765 87.2045ZM109.703 81.2983C109.805 79.7706 110.885 78.4091 112.611 78.4091C114.248 78.4091 115.296 79.6364 115.296 81.2983H109.703ZM120.633 77.1818H119.125V87H120.633V82.8068H125.338V87H126.846V77.1818H125.338V81.4006H120.633V77.1818ZM131.11 84.7756V77.1818H129.601V87H131.366L136.07 79.4062V87H137.579V77.1818H135.84L131.11 84.7756ZM144.458 87.2045C146.452 87.2045 147.91 86.2074 148.37 84.7244L146.913 84.3153C146.529 85.3381 145.641 85.8494 144.458 85.8494C142.688 85.8494 141.467 84.7053 141.396 82.6023H148.523V81.9631C148.523 78.3068 146.35 77.054 144.305 77.054C141.646 77.054 139.881 79.1506 139.881 82.1676C139.881 85.1847 141.62 87.2045 144.458 87.2045ZM141.396 81.2983C141.499 79.7706 142.579 78.4091 144.305 78.4091C145.941 78.4091 146.989 79.6364 146.989 81.2983H141.396ZM159.128 78.4602C160.662 78.473 161.576 79.8793 161.774 81.3494H158.131V82.7557H161.787C161.627 84.2514 160.681 85.7599 159.128 85.7727C157.977 85.7599 156.903 84.7628 156.903 83.6506H155.42C155.42 85.6065 156.98 87.179 159.128 87.179C161.812 87.179 163.321 84.897 163.321 82.2955V81.9375C163.321 79.3359 161.812 77.054 159.128 77.054C157.21 77.054 155.42 78.6264 155.42 80.3267H156.903C156.903 79.3104 158.105 78.473 159.128 78.4602ZM169.608 90.3494H171.116V87.2045C173.775 87.2045 175.565 85.1847 175.565 82.142C175.565 79.0739 173.775 77.054 171.116 77.054V73.9091H169.608V77.054C166.949 77.054 165.159 79.0739 165.159 82.142C165.159 85.1847 166.949 87.2045 169.608 87.2045V90.3494ZM171.116 85.8494V78.4091C173.136 78.4091 174.056 80.1733 174.056 82.142C174.056 84.1108 173.136 85.8494 171.116 85.8494ZM169.608 85.8494C167.588 85.8494 166.667 84.1108 166.667 82.142C166.667 80.1733 167.588 78.4091 169.608 78.4091V85.8494ZM181.86 90.3494H183.368V87.2045C186.027 87.2045 187.817 85.1847 187.817 82.142C187.817 79.0739 186.027 77.054 183.368 77.054V73.9091H181.86V77.054C179.2 77.054 177.411 79.0739 177.411 82.142C177.411 85.1847 179.2 87.2045 181.86 87.2045V90.3494ZM183.368 85.8494V78.4091C185.388 78.4091 186.308 80.1733 186.308 82.142C186.308 84.1108 185.388 85.8494 183.368 85.8494ZM181.86 85.8494C179.84 85.8494 178.919 84.1108 178.919 82.142C178.919 80.1733 179.84 78.4091 181.86 78.4091V85.8494ZM194.239 87.2045C196.234 87.2045 197.691 86.2074 198.151 84.7244L196.694 84.3153C196.31 85.3381 195.422 85.8494 194.239 85.8494C192.469 85.8494 191.248 84.7053 191.178 82.6023H198.305V81.9631C198.305 78.3068 196.131 77.054 194.086 77.054C191.427 77.054 189.663 79.1506 189.663 82.1676C189.663 85.1847 191.401 87.2045 194.239 87.2045ZM191.178 81.2983C191.28 79.7706 192.36 78.4091 194.086 78.4091C195.722 78.4091 196.771 79.6364 196.771 81.2983H191.178ZM200.599 87H202.108V82.858H203.463L206.685 87H208.628L204.614 81.9119L208.577 77.1818H206.634L203.105 81.4517H202.108V77.1818H200.599V87ZM209.705 78.5881H212.952V87H214.461V78.5881H217.682V77.1818H209.705V78.5881ZM221.391 84.7756V77.1818H219.883V87H221.647L226.351 79.4062V87H227.86V77.1818H226.121L221.391 84.7756ZM230.623 87H235.251C237.245 87 238.447 85.875 238.447 84.3665C238.447 82.826 237.277 81.995 236.197 81.8352C237.303 81.6051 238.089 80.9851 238.089 79.7898C238.089 78.2237 236.746 77.1818 234.637 77.1818H230.623V87ZM232.055 85.6193V82.6023H235.251C236.286 82.6023 236.913 83.2223 236.913 84.2386C236.913 85.0952 236.286 85.6193 235.251 85.6193H232.055ZM232.055 81.2983V78.5625H234.637C235.845 78.5625 236.58 79.0675 236.58 79.892C236.58 80.7678 235.845 81.2983 234.637 81.2983H232.055ZM242.239 77.1818H240.73V87H242.239V82.8068H246.943V87H248.452V77.1818H246.943V81.4006H242.239V77.1818ZM255.195 87.2045C257.855 87.2045 259.644 85.1847 259.644 82.142C259.644 79.0739 257.855 77.054 255.195 77.054C252.536 77.054 250.747 79.0739 250.747 82.142C250.747 85.1847 252.536 87.2045 255.195 87.2045ZM255.195 85.8494C253.176 85.8494 252.255 84.1108 252.255 82.142C252.255 80.1733 253.176 78.4091 255.195 78.4091C257.215 78.4091 258.136 80.1733 258.136 82.142C258.136 84.1108 257.215 85.8494 255.195 85.8494ZM265.936 87.2045C268.109 87.2045 269.541 85.875 269.797 84.1364H268.288C268.007 85.2102 267.112 85.8494 265.936 85.8494C264.146 85.8494 262.995 84.3665 262.995 82.0909C262.995 79.8665 264.172 78.4091 265.936 78.4091C267.265 78.4091 268.058 79.2273 268.288 80.1222H269.797C269.541 78.2812 267.981 77.054 265.91 77.054C263.251 77.054 261.487 79.1506 261.487 82.142C261.487 85.0824 263.174 87.2045 265.936 87.2045ZM271.228 78.5881H274.475V87H275.984V78.5881H279.206V77.1818H271.228V78.5881ZM282.915 84.7756V77.1818H281.406V87H283.17L287.875 79.4062V87H289.383V77.1818H287.645L282.915 84.7756Z" fill="#212B31"/>
<path d="M10.5405 116.364C10.7905 118.5 12.1087 120.159 14.8814 120.159C17.5859 120.159 19.3587 118.068 19.3587 114.864V113.523C19.3587 110.318 17.5859 108.205 14.745 108.205C12.1314 108.205 10.7678 109.818 10.5405 112.045H11.995C12.2223 110.432 13.0178 109.477 14.745 109.477C16.7223 109.477 17.9041 111.136 17.9041 113.545V113.705H13.3132V114.955H17.9041C17.87 117.085 16.8473 118.909 14.8814 118.909C12.995 118.909 12.245 118 11.995 116.364H10.5405ZM25.093 122.977H26.4339V120.182C28.7976 120.182 30.3885 118.386 30.3885 115.682C30.3885 112.955 28.7976 111.159 26.4339 111.159V108.364H25.093V111.159C22.7294 111.159 21.1385 112.955 21.1385 115.682C21.1385 118.386 22.7294 120.182 25.093 120.182V122.977ZM26.4339 118.977V112.364C28.2294 112.364 29.0476 113.932 29.0476 115.682C29.0476 117.432 28.2294 118.977 26.4339 118.977ZM25.093 118.977C23.2976 118.977 22.4794 117.432 22.4794 115.682C22.4794 113.932 23.2976 112.364 25.093 112.364V118.977ZM35.9837 122.977H37.3246V120.182C39.6882 120.182 41.2791 118.386 41.2791 115.682C41.2791 112.955 39.6882 111.159 37.3246 111.159V108.364H35.9837V111.159C33.62 111.159 32.0291 112.955 32.0291 115.682C32.0291 118.386 33.62 120.182 35.9837 120.182V122.977ZM37.3246 118.977V112.364C39.12 112.364 39.9382 113.932 39.9382 115.682C39.9382 117.432 39.12 118.977 37.3246 118.977ZM35.9837 118.977C34.1882 118.977 33.37 117.432 33.37 115.682C33.37 113.932 34.1882 112.364 35.9837 112.364V118.977ZM46.9879 120.182C48.7607 120.182 50.0561 119.295 50.4652 117.977L49.1697 117.614C48.8288 118.523 48.0391 118.977 46.9879 118.977C45.4141 118.977 44.3288 117.96 44.2663 116.091H50.6016V115.523C50.6016 112.273 48.6697 111.159 46.8516 111.159C44.4879 111.159 42.9197 113.023 42.9197 115.705C42.9197 118.386 44.4652 120.182 46.9879 120.182ZM44.2663 114.932C44.3572 113.574 45.3175 112.364 46.8516 112.364C48.3061 112.364 49.2379 113.455 49.2379 114.932H44.2663ZM52.6413 120H53.9822V116.318H55.1868L58.0504 120H59.7777L56.2095 115.477L59.7322 111.273H58.005L54.8686 115.068H53.9822V111.273H52.6413V120ZM60.7351 112.523H63.6214V120H64.9624V112.523H67.826V111.273H60.7351V112.523ZM71.1229 118.023V111.273H69.782V120H71.3501L75.532 113.25V120H76.8729V111.273H75.3274L71.1229 118.023ZM79.3288 120H83.4425C85.2152 120 86.2834 119 86.2834 117.659C86.2834 116.29 85.2436 115.551 84.2834 115.409C85.2663 115.205 85.9652 114.653 85.9652 113.591C85.9652 112.199 84.772 111.273 82.897 111.273H79.3288V120ZM80.6016 118.773V116.091H83.4425C84.3629 116.091 84.9197 116.642 84.9197 117.545C84.9197 118.307 84.3629 118.773 83.4425 118.773H80.6016ZM80.6016 114.932V112.5H82.897C83.9709 112.5 84.6243 112.949 84.6243 113.682C84.6243 114.46 83.9709 114.932 82.897 114.932H80.6016ZM89.6541 111.273H88.3132V120H89.6541V116.273H93.8359V120H95.1768V111.273H93.8359V115.023H89.6541V111.273ZM98.9666 114.432V111.273H97.6257V120H101.285C103.33 120 104.444 118.75 104.444 117.182C104.444 115.591 103.33 114.432 101.285 114.432H98.9666ZM105.83 120H107.171V111.273H105.83V120ZM98.9666 115.682H101.285C102.347 115.682 103.103 116.33 103.103 117.25C103.103 118.131 102.347 118.75 101.285 118.75H98.9666V115.682ZM113.285 120.182C115.058 120.182 116.353 119.295 116.762 117.977L115.467 117.614C115.126 118.523 114.336 118.977 113.285 118.977C111.711 118.977 110.626 117.96 110.563 116.091H116.898V115.523C116.898 112.273 114.967 111.159 113.148 111.159C110.785 111.159 109.217 113.023 109.217 115.705C109.217 118.386 110.762 120.182 113.285 120.182ZM110.563 114.932C110.654 113.574 111.614 112.364 113.148 112.364C114.603 112.364 115.535 113.455 115.535 114.932H110.563ZM123.438 120H124.779V112.523H128.961V120H130.302V111.273H123.438V120ZM132.751 123.273H134.092V118.659H134.205C134.501 119.136 135.069 120.182 136.751 120.182C138.933 120.182 140.455 118.432 140.455 115.659C140.455 112.909 138.933 111.159 136.728 111.159C135.023 111.159 134.501 112.205 134.205 112.659H134.046V111.273H132.751V123.273ZM134.069 115.636C134.069 113.682 134.933 112.364 136.569 112.364C138.273 112.364 139.114 113.795 139.114 115.636C139.114 117.5 138.251 118.977 136.569 118.977C134.955 118.977 134.069 117.614 134.069 115.636ZM146.046 120.182C148.41 120.182 150.001 118.386 150.001 115.682C150.001 112.955 148.41 111.159 146.046 111.159C143.683 111.159 142.092 112.955 142.092 115.682C142.092 118.386 143.683 120.182 146.046 120.182ZM146.046 118.977C144.251 118.977 143.433 117.432 143.433 115.682C143.433 113.932 144.251 112.364 146.046 112.364C147.842 112.364 148.66 113.932 148.66 115.682C148.66 117.432 147.842 118.977 146.046 118.977ZM155.707 120.182C157.479 120.182 158.775 119.295 159.184 117.977L157.888 117.614C157.548 118.523 156.758 118.977 155.707 118.977C154.133 118.977 153.048 117.96 152.985 116.091H159.32V115.523C159.32 112.273 157.388 111.159 155.57 111.159C153.207 111.159 151.638 113.023 151.638 115.705C151.638 118.386 153.184 120.182 155.707 120.182ZM152.985 114.932C153.076 113.574 154.036 112.364 155.57 112.364C157.025 112.364 157.957 113.455 157.957 114.932H152.985ZM161.36 120H162.701V116.318H163.906L166.769 120H168.496L164.928 115.477L168.451 111.273H166.724L163.587 115.068H162.701V111.273H161.36V120ZM169.454 112.523H172.34V120H173.681V112.523H176.545V111.273H169.454V112.523ZM179.842 114.432V111.273H178.501V120H182.16C184.205 120 185.319 118.75 185.319 117.182C185.319 115.591 184.205 114.432 182.16 114.432H179.842ZM186.705 120H188.046V111.273H186.705V120ZM179.842 115.682H182.16C183.222 115.682 183.978 116.33 183.978 117.25C183.978 118.131 183.222 118.75 182.16 118.75H179.842V115.682ZM198.546 120.182C200.478 120.182 201.751 119 201.978 117.455H200.637C200.387 118.409 199.592 118.977 198.546 118.977C196.955 118.977 195.933 117.659 195.933 115.636C195.933 113.659 196.978 112.364 198.546 112.364C199.728 112.364 200.433 113.091 200.637 113.886H201.978C201.751 112.25 200.364 111.159 198.523 111.159C196.16 111.159 194.592 113.023 194.592 115.682C194.592 118.295 196.092 120.182 198.546 120.182ZM203.251 112.523H206.137V120H207.478V112.523H210.342V111.273H203.251V112.523ZM215.39 120.182C217.754 120.182 219.344 118.386 219.344 115.682C219.344 112.955 217.754 111.159 215.39 111.159C213.026 111.159 211.435 112.955 211.435 115.682C211.435 118.386 213.026 120.182 215.39 120.182ZM215.39 118.977C213.594 118.977 212.776 117.432 212.776 115.682C212.776 113.932 213.594 112.364 215.39 112.364C217.185 112.364 218.004 113.932 218.004 115.682C218.004 117.432 217.185 118.977 215.39 118.977ZM226.641 120H227.914V111.273H224.323C222.442 111.273 221.3 112.256 221.3 113.864C221.3 115.062 221.903 115.915 222.954 116.273L220.823 120H222.278L224.3 116.455H226.641V120ZM226.641 115.205H224.164C223.215 115.205 222.641 114.699 222.641 113.864C222.641 113.017 223.278 112.5 224.323 112.5H226.641V115.205ZM229.188 112.523H232.075V120H233.415V112.523H236.279V111.273H229.188V112.523ZM241.803 122.5H243.144V120H249.599V122.5H250.94V118.75H249.599V111.273H244.053L243.758 114.727C243.548 117.17 243.235 118.011 242.531 118.75H241.803V122.5ZM244.053 118.75C244.667 117.943 244.888 116.551 245.076 114.727L245.303 112.523H248.258V118.75H244.053ZM256.379 120.182C258.151 120.182 259.447 119.295 259.856 117.977L258.56 117.614C258.219 118.523 257.43 118.977 256.379 118.977C254.805 118.977 253.719 117.96 253.657 116.091H259.992V115.523C259.992 112.273 258.06 111.159 256.242 111.159C253.879 111.159 252.31 113.023 252.31 115.705C252.31 118.386 253.856 120.182 256.379 120.182ZM253.657 114.932C253.748 113.574 254.708 112.364 256.242 112.364C257.697 112.364 258.629 113.455 258.629 114.932H253.657ZM262.032 111.273V120H272.646V111.273H271.305V118.75H268.009V111.273H266.668V118.75H263.373V111.273H262.032ZM278.754 120.182C280.526 120.182 281.822 119.295 282.231 117.977L280.935 117.614C280.594 118.523 279.805 118.977 278.754 118.977C277.18 118.977 276.094 117.96 276.032 116.091H282.367V115.523C282.367 112.273 280.435 111.159 278.617 111.159C276.254 111.159 274.685 113.023 274.685 115.705C274.685 118.386 276.231 120.182 278.754 120.182ZM276.032 114.932C276.123 113.574 277.083 112.364 278.617 112.364C280.072 112.364 281.004 113.455 281.004 114.932H276.032ZM284.407 120H288.521C290.293 120 291.362 119 291.362 117.659C291.362 116.29 290.322 115.551 289.362 115.409C290.344 115.205 291.043 114.653 291.043 113.591C291.043 112.199 289.85 111.273 287.975 111.273H284.407V120ZM285.68 118.773V116.091H288.521C289.441 116.091 289.998 116.642 289.998 117.545C289.998 118.307 289.441 118.773 288.521 118.773H285.68ZM285.68 114.932V112.5H287.975C289.049 112.5 289.702 112.949 289.702 113.682C289.702 114.46 289.049 114.932 287.975 114.932H285.68ZM292.619 120H293.073C295.005 120 295.562 118.5 295.687 115.636L295.823 112.523H299.028V120H300.369V111.273H294.55L294.391 115.136C294.278 118.068 293.982 118.75 292.937 118.75H292.619V120ZM306.488 120.182C308.261 120.182 309.556 119.295 309.965 117.977L308.67 117.614C308.329 118.523 307.539 118.977 306.488 118.977C304.914 118.977 303.829 117.96 303.766 116.091H310.102V115.523C310.102 112.273 308.17 111.159 306.352 111.159C303.988 111.159 302.42 113.023 302.42 115.705C302.42 118.386 303.965 120.182 306.488 120.182ZM303.766 114.932C303.857 113.574 304.817 112.364 306.352 112.364C307.806 112.364 308.738 113.455 308.738 114.932H303.766ZM75.7244 142.023V135.273H74.3835V144H75.9517L80.1335 137.25V144H81.4744V135.273H79.929L75.7244 142.023ZM87.8849 141.773C87.9304 143.205 89.2997 144.182 91.1577 144.182C93.0668 144.182 94.4531 143.159 94.4531 141.568C94.4531 140.477 93.7997 139.591 92.8168 139.523V139.432C93.6463 139.176 94.2713 138.574 94.2713 137.591C94.2713 136.21 93.0895 135.159 91.2486 135.159C89.4304 135.159 88.1349 136.159 88.0895 137.568H89.4986C89.5384 136.847 90.294 136.341 91.3168 136.341C92.3338 136.341 92.9077 136.858 92.9077 137.636C92.9077 138.364 92.4077 138.909 91.3395 138.909H89.8395V140.114H91.3395C92.4077 140.114 93.0895 140.699 93.0895 141.568C93.0895 142.562 92.2088 142.977 91.1349 142.977C90.0838 142.977 89.3793 142.562 89.3168 141.773H87.8849ZM98.9048 144.205C100.428 144.205 101.223 143.386 101.496 142.818H101.564V144H102.905V138.25C102.905 135.477 100.791 135.159 99.6776 135.159C98.3594 135.159 96.8594 135.614 96.1776 137.205L97.4503 137.659C97.7457 137.023 98.4446 136.341 99.723 136.341C100.956 136.341 101.564 136.994 101.564 138.114V138.159C101.564 138.807 100.905 138.75 99.3139 138.955C97.6946 139.165 95.9276 139.523 95.9276 141.523C95.9276 143.227 97.2457 144.205 98.9048 144.205ZM99.1094 143C98.0412 143 97.2685 142.523 97.2685 141.591C97.2685 140.568 98.2003 140.25 99.2457 140.114C99.8139 140.045 101.337 139.886 101.564 139.614V140.841C101.564 141.932 100.7 143 99.1094 143ZM105.352 144H109.466C111.239 144 112.307 143 112.307 141.659C112.307 140.29 111.267 139.551 110.307 139.409C111.29 139.205 111.989 138.653 111.989 137.591C111.989 136.199 110.795 135.273 108.92 135.273H105.352V144ZM106.625 142.773V140.091H109.466C110.386 140.091 110.943 140.642 110.943 141.545C110.943 142.307 110.386 142.773 109.466 142.773H106.625ZM106.625 138.932V136.5H108.92C109.994 136.5 110.648 136.949 110.648 137.682C110.648 138.46 109.994 138.932 108.92 138.932H106.625ZM117.996 144.182C119.768 144.182 121.064 143.295 121.473 141.977L120.178 141.614C119.837 142.523 119.047 142.977 117.996 142.977C116.422 142.977 115.337 141.96 115.274 140.091H121.609V139.523C121.609 136.273 119.678 135.159 117.859 135.159C115.496 135.159 113.928 137.023 113.928 139.705C113.928 142.386 115.473 144.182 117.996 144.182ZM115.274 138.932C115.365 137.574 116.325 136.364 117.859 136.364C119.314 136.364 120.246 137.455 120.246 138.932H115.274ZM123.649 147.273H124.99V142.659H125.104C125.399 143.136 125.967 144.182 127.649 144.182C129.831 144.182 131.354 142.432 131.354 139.659C131.354 136.909 129.831 135.159 127.626 135.159C125.922 135.159 125.399 136.205 125.104 136.659H124.945V135.273H123.649V147.273ZM124.967 139.636C124.967 137.682 125.831 136.364 127.467 136.364C129.172 136.364 130.013 137.795 130.013 139.636C130.013 141.5 129.149 142.977 127.467 142.977C125.854 142.977 124.967 141.614 124.967 139.636ZM133.399 135.273V144H144.013V135.273H142.672V142.75H139.376V135.273H138.036V142.75H134.74V135.273H133.399ZM149.03 144.205C150.553 144.205 151.348 143.386 151.621 142.818H151.689V144H153.03V138.25C153.03 135.477 150.916 135.159 149.803 135.159C148.484 135.159 146.984 135.614 146.303 137.205L147.575 137.659C147.871 137.023 148.57 136.341 149.848 136.341C151.081 136.341 151.689 136.994 151.689 138.114V138.159C151.689 138.807 151.03 138.75 149.439 138.955C147.82 139.165 146.053 139.523 146.053 141.523C146.053 143.227 147.371 144.205 149.03 144.205ZM149.234 143C148.166 143 147.393 142.523 147.393 141.591C147.393 140.568 148.325 140.25 149.371 140.114C149.939 140.045 151.462 139.886 151.689 139.614V140.841C151.689 141.932 150.825 143 149.234 143ZM156.182 135.273H154.841V144H156.182V140.341H158.42C158.659 142.676 160.176 144.182 162.341 144.182C164.705 144.182 166.295 142.386 166.295 139.682C166.295 136.955 164.705 135.159 162.341 135.159C160.153 135.159 158.625 136.699 158.415 139.091H156.182V135.273ZM162.341 142.977C160.545 142.977 159.727 141.432 159.727 139.682C159.727 137.932 160.545 136.364 162.341 136.364C164.136 136.364 164.955 137.932 164.955 139.682C164.955 141.432 164.136 142.977 162.341 142.977ZM167.337 136.523H170.223V144H171.564V136.523H174.428V135.273H167.337V136.523ZM179.476 144.182C181.408 144.182 182.68 143 182.908 141.455H181.567C181.317 142.409 180.521 142.977 179.476 142.977C177.885 142.977 176.862 141.659 176.862 139.636C176.862 137.659 177.908 136.364 179.476 136.364C180.658 136.364 181.362 137.091 181.567 137.886H182.908C182.68 136.25 181.294 135.159 179.453 135.159C177.089 135.159 175.521 137.023 175.521 139.682C175.521 142.295 177.021 144.182 179.476 144.182ZM190.118 144H191.391V135.273H187.8C185.919 135.273 184.777 136.256 184.777 137.864C184.777 139.062 185.379 139.915 186.43 140.273L184.3 144H185.754L187.777 140.455H190.118V144ZM190.118 139.205H187.641C186.692 139.205 186.118 138.699 186.118 137.864C186.118 137.017 186.754 136.5 187.8 136.5H190.118V139.205ZM198.352 144H202.466C204.239 144 205.307 143 205.307 141.659C205.307 140.29 204.267 139.551 203.307 139.409C204.29 139.205 204.989 138.653 204.989 137.591C204.989 136.199 203.795 135.273 201.92 135.273H198.352V144ZM199.625 142.773V140.091H202.466C203.386 140.091 203.943 140.642 203.943 141.545C203.943 142.307 203.386 142.773 202.466 142.773H199.625ZM199.625 138.932V136.5H201.92C202.994 136.5 203.648 136.949 203.648 137.682C203.648 138.46 202.994 138.932 201.92 138.932H199.625ZM215.382 144.182C217.314 144.182 218.587 143 218.814 141.455H217.473C217.223 142.409 216.428 142.977 215.382 142.977C213.791 142.977 212.768 141.659 212.768 139.636C212.768 137.659 213.814 136.364 215.382 136.364C216.564 136.364 217.268 137.091 217.473 137.886H218.814C218.587 136.25 217.2 135.159 215.359 135.159C212.996 135.159 211.428 137.023 211.428 139.682C211.428 142.295 212.928 144.182 215.382 144.182ZM220.774 147.273H222.115V142.659H222.229C222.524 143.136 223.092 144.182 224.774 144.182C226.956 144.182 228.479 142.432 228.479 139.659C228.479 136.909 226.956 135.159 224.751 135.159C223.047 135.159 222.524 136.205 222.229 136.659H222.07V135.273H220.774V147.273ZM222.092 139.636C222.092 137.682 222.956 136.364 224.592 136.364C226.297 136.364 227.138 137.795 227.138 139.636C227.138 141.5 226.274 142.977 224.592 142.977C222.979 142.977 222.092 141.614 222.092 139.636ZM234.07 144.182C236.433 144.182 238.024 142.386 238.024 139.682C238.024 136.955 236.433 135.159 234.07 135.159C231.706 135.159 230.115 136.955 230.115 139.682C230.115 142.386 231.706 144.182 234.07 144.182ZM234.07 142.977C232.274 142.977 231.456 141.432 231.456 139.682C231.456 137.932 232.274 136.364 234.07 136.364C235.865 136.364 236.683 137.932 236.683 139.682C236.683 141.432 235.865 142.977 234.07 142.977ZM240.071 144H241.412V140.318H242.616L245.48 144H247.207L243.639 139.477L247.162 135.273H245.435L242.298 139.068H241.412V135.273H240.071V144ZM249.642 144.091C250.205 144.091 250.665 143.631 250.665 143.068C250.665 142.506 250.205 142.045 249.642 142.045C249.08 142.045 248.619 142.506 248.619 143.068C248.619 143.631 249.08 144.091 249.642 144.091Z" fill="#72787D"/>
<defs>
<clipPath id="clip0_2_5">
<rect width="48" height="48" fill="white" transform="translate(144)"/>
</clipPath>
</defs>
</svg>
